<?xml version="1.0" encoding="UTF-8" standalone="no"?>
<!DOCTYPE svg PUBLIC "-//W3C//DTD SVG 1.1//EN"
 "http://www.w3.org/Graphics/SVG/1.1/DTD/svg11.dtd">
<!-- Generated by graphviz version 2.43.0 (0)
 -->
<!-- Title: %3 Pages: 1 -->
<svg width="805pt" height="260pt"
 viewBox="0.00 0.00 804.50 260.00" xmlns="http://www.w3.org/2000/svg" xmlns:xlink="http://www.w3.org/1999/xlink">
<g id="graph0" class="graph" transform="scale(1 1) rotate(0) translate(4 256)">
<title>%3</title>
<polygon fill="white" stroke="transparent" points="-4,4 -4,-256 800.5,-256 800.5,4 -4,4"/>
<!-- [root] aws_sns_topic.terraform_topic1 (expand) -->
<g id="node1" class="node">
<title>[root] aws_sns_topic.terraform_topic1 (expand)</title>
<polygon fill="none" stroke="black" points="242,-108 0,-108 0,-72 242,-72 242,-108"/>
<text text-anchor="middle" x="121" y="-86.3" font-family="Times,serif" font-size="14.00">aws_sns_topic.terraform_topic1</text>
</g>
<!-- [root] provider[&quot;registry.terraform.io/hashicorp/aws&quot;] -->
<g id="node4" class="node">
<title>[root] provider[&quot;registry.terraform.io/hashicorp/aws&quot;]</title>
<polygon fill="none" stroke="black" points="390,-36 64.74,-18 390,0 715.26,-18 390,-36"/>
<text text-anchor="middle" x="390" y="-14.3" font-family="Times,serif" font-size="14.00">provider[&quot;registry.terraform.io/hashicorp/aws&quot;]</text>
</g>
<!-- [root] aws_sns_topic.terraform_topic1 (expand)&#45;&gt;[root] provider[&quot;registry.terraform.io/hashicorp/aws&quot;] -->
<g id="edge1" class="edge">
<title>[root] aws_sns_topic.terraform_topic1 (expand)&#45;&gt;[root] provider[&quot;registry.terraform.io/hashicorp/aws&quot;]</title>
<path fill="none" stroke="black" d="M186.46,-71.97C228.93,-60.91 284.01,-46.58 326.16,-35.61"/>
<polygon fill="black" stroke="black" points="327.23,-38.95 336.03,-33.04 325.47,-32.18 327.23,-38.95"/>
</g>
<!-- [root] aws_sqs_queue.terraform_queue1 (expand) -->
<g id="node2" class="node">
<title>[root] aws_sqs_queue.terraform_queue1 (expand)</title>
<polygon fill="none" stroke="black" points="519.5,-108 260.5,-108 260.5,-72 519.5,-72 519.5,-108"/>
<text text-anchor="middle" x="390" y="-86.3" font-family="Times,serif" font-size="14.00">aws_sqs_queue.terraform_queue1</text>
</g>
<!-- [root] aws_sqs_queue.terraform_queue1 (expand)&#45;&gt;[root] provider[&quot;registry.terraform.io/hashicorp/aws&quot;] -->
<g id="edge2" class="edge">
<title>[root] aws_sqs_queue.terraform_queue1 (expand)&#45;&gt;[root] provider[&quot;registry.terraform.io/hashicorp/aws&quot;]</title>
<path fill="none" stroke="black" d="M390,-71.7C390,-63.98 390,-54.71 390,-46.11"/>
<polygon fill="black" stroke="black" points="393.5,-46.1 390,-36.1 386.5,-46.1 393.5,-46.1"/>
</g>
<!-- [root] aws_sqs_queue.terraform_queue2 (expand) -->
<g id="node3" class="node">
<title>[root] aws_sqs_queue.terraform_queue2 (expand)</title>
<polygon fill="none" stroke="black" points="796.5,-108 537.5,-108 537.5,-72 796.5,-72 796.5,-108"/>
<text text-anchor="middle" x="667" y="-86.3" font-family="Times,serif" font-size="14.00">aws_sqs_queue.terraform_queue2</text>
</g>
<!-- [root] aws_sqs_queue.terraform_queue2 (expand)&#45;&gt;[root] provider[&quot;registry.terraform.io/hashicorp/aws&quot;] -->
<g id="edge3" class="edge">
<title>[root] aws_sqs_queue.terraform_queue2 (expand)&#45;&gt;[root] provider[&quot;registry.terraform.io/hashicorp/aws&quot;]</title>
<path fill="none" stroke="black" d="M599.59,-71.97C555.76,-60.89 498.91,-46.52 455.47,-35.54"/>
<polygon fill="black" stroke="black" points="456.13,-32.1 445.58,-33.04 454.41,-38.89 456.13,-32.1"/>
</g>
<!-- [root] provider[&quot;registry.terraform.io/hashicorp/aws&quot;] (close) -->
<g id="node5" class="node">
<title>[root] provider[&quot;registry.terraform.io/hashicorp/aws&quot;] (close)</title>
<ellipse fill="none" stroke="black" cx="390" cy="-162" rx="291.65" ry="18"/>
<text text-anchor="middle" x="390" y="-158.3" font-family="Times,serif" font-size="14.00">[root] provider[&quot;registry.terraform.io/hashicorp/aws&quot;] (close)</text>
</g>
<!-- [root] provider[&quot;registry.terraform.io/hashicorp/aws&quot;] (close)&#45;&gt;[root] aws_sns_topic.terraform_topic1 (expand) -->
<g id="edge4" class="edge">
<title>[root] provider[&quot;registry.terraform.io/hashicorp/aws&quot;] (close)&#45;&gt;[root] aws_sns_topic.terraform_topic1 (expand)</title>
<path fill="none" stroke="black" d="M326.25,-144.41C287.35,-134.29 237.42,-121.3 196.55,-110.66"/>
<polygon fill="black" stroke="black" points="197.19,-107.21 186.63,-108.08 195.43,-113.98 197.19,-107.21"/>
</g>
<!-- [root] provider[&quot;registry.terraform.io/hashicorp/aws&quot;] (close)&#45;&gt;[root] aws_sqs_queue.terraform_queue1 (expand) -->
<g id="edge5" class="edge">
<title>[root] provider[&quot;registry.terraform.io/hashicorp/aws&quot;] (close)&#45;&gt;[root] aws_sqs_queue.terraform_queue1 (expand)</title>
<path fill="none" stroke="black" d="M390,-143.7C390,-135.98 390,-126.71 390,-118.11"/>
<polygon fill="black" stroke="black" points="393.5,-118.1 390,-108.1 386.5,-118.1 393.5,-118.1"/>
</g>
<!-- [root] provider[&quot;registry.terraform.io/hashicorp/aws&quot;] (close)&#45;&gt;[root] aws_sqs_queue.terraform_queue2 (expand) -->
<g id="edge6" class="edge">
<title>[root] provider[&quot;registry.terraform.io/hashicorp/aws&quot;] (close)&#45;&gt;[root] aws_sqs_queue.terraform_queue2 (expand)</title>
<path fill="none" stroke="black" d="M455.65,-144.41C495.78,-134.27 547.33,-121.24 589.48,-110.59"/>
<polygon fill="black" stroke="black" points="590.58,-113.92 599.42,-108.08 588.87,-107.14 590.58,-113.92"/>
</g>
<!-- [root] root -->
<g id="node6" class="node">
<title>[root] root</title>
<ellipse fill="none" stroke="black" cx="390" cy="-234" rx="58.49" ry="18"/>
<text text-anchor="middle" x="390" y="-230.3" font-family="Times,serif" font-size="14.00">[root] root</text>
</g>
<!-- [root] root&#45;&gt;[root] provider[&quot;registry.terraform.io/hashicorp/aws&quot;] (close) -->
<g id="edge7" class="edge">
<title>[root] root&#45;&gt;[root] provider[&quot;registry.terraform.io/hashicorp/aws&quot;] (close)</title>
<path fill="none" stroke="black" d="M390,-215.7C390,-207.98 390,-198.71 390,-190.11"/>
<polygon fill="black" stroke="black" points="393.5,-190.1 390,-180.1 386.5,-190.1 393.5,-190.1"/>
</g>
</g>
</svg>
